<?xml version="1.0" encoding="utf-8"?>
<!-- Generator: Adobe Illustrator 16.0.3, SVG Export Plug-In . SVG Version: 6.00 Build 0)  -->
<!DOCTYPE svg PUBLIC "-//W3C//DTD SVG 1.1//EN" "http://www.w3.org/Graphics/SVG/1.1/DTD/svg11.dtd">
<svg version="1.1" xmlns="http://www.w3.org/2000/svg" xmlns:xlink="http://www.w3.org/1999/xlink" x="0px" y="0px" width="288px"
	 height="288px" viewBox="0 0 288 288" enable-background="new 0 0 288 288" xml:space="preserve">
<g id="ilustracion">
	<g>
		<path fill-rule="evenodd" clip-rule="evenodd" fill="none" d="M198.661,197.161c-34.699,0.818-69.399,0.805-104.102,0.01
			c0.058-22.936,0.059-45.871,0.194-68.807c0.083-14.411,6.636-21.093,20.908-21.179c20.644-0.124,41.29-0.131,61.933,0.001
			c14.38,0.094,20.867,6.733,20.93,21.166C198.623,151.291,198.621,174.226,198.661,197.161z M138.459,158.288
			c0.275-1.931,0.713-3.854,0.797-5.791c1.109-25.337,0.382-25.935-24.684-24.488c-5.571,0.321-9.406,2.421-8.37,8.044
			c1.519,8.247-5.49,18.4,5.2,24.642c0.52,0.303,1.276,0.309,1.914,0.281c8.083-0.348,16.287,1.372,24.23-1.387
			c0.733,1.788,1.208,3.749,2.262,5.322c1.594,2.382,6.594,3.267,3.314,7.621c-2.785,3.701-6.878,3.017-10.839,2.9
			c-3.543-0.104-5.126-5.793-9.852-2.987c4.185,8.577,11.574,8.857,18.991,6.6c3.79-1.152,6.35-1.608,10.393-0.156
			c7.189,2.582,14.721,2.356,19.063-6.429c-5.221-2.277-7.441,3.993-12.012,3.244c-3.285-0.539-6.738-0.357-8.819-3.328
			c-2.547-3.631,1.099-5.009,2.981-7.057c4.434-4.821,2.332-7.515-3.139-8.813C145.877,155.557,142.097,156.579,138.459,158.288z
			 M165.033,144.599c0.36,3.709,1.119,8.283,5.717,8.416c4.982,0.143,5.544-4.873,5.526-8.628c-0.016-3.377-0.462-7.91-4.962-8.183
			C166.196,135.892,165.74,140.432,165.033,144.599z"/>
		<path fill-rule="evenodd" clip-rule="evenodd" fill="#181818" d="M198.661,197.161c-0.04-22.936-0.038-45.87-0.137-68.809
			c-0.063-14.432-6.55-21.072-20.93-21.166c-20.644-0.132-41.29-0.125-61.933-0.001c-14.272,0.086-20.825,6.768-20.908,21.179
			c-0.135,22.936-0.136,45.871-0.194,68.807c-9.762,2.219-12.709-1.333-12.191-11.454c0.939-18.32,0.334-36.723,0.228-55.088
			c-0.035-5.968,0.278-11.924,2.721-17.341c1.618-3.583,0.499-5.633-2.16-7.451c-2.967-2.028-3.968,1.191-5.394,2.508
			c-4.814,4.448-9.173,9.406-14.13,13.679c-9.224,7.951-21.897,8.374-30.786,1.433c-5.353-4.179-6.636-8.701-1.316-13.96
			c10.495-10.377,20.954-20.789,31.364-31.25c4.585-4.607,9.629-5.214,13.417,0.082c11.205,15.666,25.209,20.368,44.607,17.516
			c17.978-2.645,36.652-0.564,55.019-0.564c0.985,0,2.133-0.337,2.931,0.05c16.816,8.174,25.265-4.185,34.953-13.962
			c9.322-9.407,10.299-9.259,19.688,0.08c9.068,9.021,18.218,17.962,27.177,27.091c6.61,6.74,5.852,11.375-2.3,16.203
			c-10.097,5.982-20.368,4.903-29.535-3.408c-4.609-4.182-8.788-8.839-13.37-13.06c-1.395-1.285-2.341-4.661-5.322-2.439
			c-2.464,1.836-3.062,3.69-2.267,7.387c5.714,26.561,1.91,53.537,2.37,80.327C210.4,201.577,202.539,195.646,198.661,197.161z"/>
		<path fill-rule="evenodd" clip-rule="evenodd" fill="#181818" d="M137.547,159.59c0.556-0.258,0.863-0.694,0.917-1.304
			c3.633-1.707,7.413-2.729,11.427-1.778c5.471,1.298,7.572,3.991,3.139,8.813c-1.883,2.048-5.528,3.426-2.981,7.057
			c2.081,2.971,5.534,2.789,8.819,3.328c4.57,0.749,6.791-5.521,12.012-3.244c-4.342,8.785-11.873,9.011-19.063,6.429
			c-4.043-1.452-6.603-0.996-10.393,0.156c-7.417,2.258-14.807,1.978-18.991-6.6c4.725-2.806,6.309,2.884,9.852,2.987
			c3.961,0.116,8.054,0.801,10.839-2.9c3.279-4.354-1.721-5.239-3.314-7.621C138.754,163.339,138.28,161.378,137.547,159.59z"/>
		<path fill-rule="evenodd" clip-rule="evenodd" fill="#151515" d="M135.382,142.257c-0.108,7.111-1.613,14.03-11.537,14.248
			c-9.334,0.207-10.754-6.891-10.82-12.418c-0.073-5.944,0.322-13.452,11.314-13.367C133.5,130.788,134.883,137.212,135.382,142.257
			z"/>
		<path fill-rule="evenodd" clip-rule="evenodd" fill="#2196F3" d="M137.191,143.881c-0.536,8.4-5.035,15.421-13.374,20.104
			c-1.491,0.836-2.815,0.679-3.845-0.222c-6.079-5.321-11.517-10.979-12.247-19.76c-0.723-8.695,6.457-15.21,14.167-15.526
			C130.56,128.124,136.995,134.264,137.191,143.881z M114.271,141.654c-0.071,4.533,3.415,8.171,7.984,8.361
			c5.708,0.236,8.408-4.004,8.6-8.201c0.189-4.19-3.654-7.774-8.078-7.944C118.019,133.688,114.342,137.051,114.271,141.654z"/>
		<g>
			<path fill-rule="evenodd" clip-rule="evenodd" fill="#151515" d="M177.478,141.597c-0.145,4.736-4.03,8.666-8.679,8.774
				c-4.649,0.108-8.418-3.545-8.418-8.155c0-4.613,3.886-8.544,8.68-8.778C173.852,133.204,177.621,136.857,177.478,141.597z"/>
		</g>
		<g>
			<path fill="#151515" d="M129.535,188.823c0,0,0.495,0.259,1.405,0.622c0.449,0.191,1.013,0.388,1.644,0.634
				c0.649,0.207,1.361,0.483,2.17,0.692c0.797,0.243,1.672,0.456,2.601,0.652c0.921,0.225,1.916,0.35,2.924,0.537
				c1.027,0.083,2.071,0.266,3.144,0.287c0.534,0.022,1.072,0.045,1.612,0.067c0.539,0.022,1.081-0.033,1.62-0.045
				c0.539-0.041,1.079-0.037,1.61-0.113c0.528-0.082,1.056-0.165,1.578-0.247c1.046-0.128,2.037-0.448,3.015-0.615
				c0.992-0.118,1.901-0.437,2.814-0.57c0.914-0.141,1.75-0.383,2.54-0.581c0.78-0.22,1.555-0.311,2.192-0.521
				c0.645-0.193,1.22-0.353,1.708-0.469c0.971-0.239,1.574-0.331,1.574-0.331l0.182,0.299c0,0-0.389,0.441-1.153,1.133
				c-0.381,0.35-0.859,0.757-1.424,1.212c-0.271,0.252-0.606,0.425-0.948,0.639c-0.344,0.209-0.708,0.432-1.1,0.641
				c-0.391,0.216-0.798,0.44-1.22,0.672c-0.429,0.219-0.904,0.358-1.379,0.55c-0.959,0.348-1.975,0.756-3.085,0.904
				c-1.105,0.162-2.246,0.359-3.422,0.304c-0.583,0.002-1.17,0.005-1.76,0.007c-0.587,0.002-1.176-0.077-1.762-0.112
				c-0.586-0.048-1.173-0.054-1.75-0.137c-0.576-0.085-1.15-0.17-1.719-0.253c-1.141-0.136-2.226-0.479-3.286-0.706
				c-1.036-0.337-2.054-0.583-2.973-0.965c-0.929-0.347-1.793-0.7-2.571-1.07c-0.791-0.337-1.479-0.729-2.102-1.036
				c-0.608-0.344-1.141-0.63-1.559-0.907c-0.849-0.524-1.304-0.874-1.304-0.874L129.535,188.823z"/>
		</g>
	</g>
</g>
<g id="Capa_2">
</g>
</svg>
